<svg width="31" height="31" viewBox="0 0 31 31" fill="none" xmlns="http://www.w3.org/2000/svg">
<path d="M10.6667 28.7917C12.0014 28.7917 13.0833 27.7097 13.0833 26.375C13.0833 25.0403 12.0014 23.9583 10.6667 23.9583C9.33198 23.9583 8.25 25.0403 8.25 26.375C8.25 27.7097 9.33198 28.7917 10.6667 28.7917Z" stroke="#3F3F3F" stroke-width="2.8" stroke-linecap="round" stroke-linejoin="round"/>
<path d="M25.1667 28.7917C26.5014 28.7917 27.5833 27.7097 27.5833 26.375C27.5833 25.0403 26.5014 23.9583 25.1667 23.9583C23.832 23.9583 22.75 25.0403 22.75 26.375C22.75 27.7097 23.832 28.7917 25.1667 28.7917Z" stroke="#3F3F3F" stroke-width="2.8" stroke-linecap="round" stroke-linejoin="round"/>
<path d="M7.85141 8.25H28.7918L26.7618 18.3879C26.6513 18.9442 26.3487 19.4439 25.9069 19.7996C25.4651 20.1553 24.9122 20.3442 24.3452 20.3333H11.5731C10.983 20.3383 10.4115 20.1273 9.96637 19.74C9.52119 19.3527 9.2331 18.8159 9.15641 18.2308L7.31975 4.31083C7.24358 3.72991 6.95897 3.19644 6.51886 2.80968C6.07876 2.42292 5.51314 2.20922 4.92725 2.20833H2.2085" stroke="#3F3F3F" stroke-width="2.8" stroke-linecap="round" stroke-linejoin="round"/>
</svg>
