<svg width="10" height="9" viewBox="0 0 10 9" fill="none" xmlns="http://www.w3.org/2000/svg">
<path d="M8.74767 6.95572L6.49907 4.70712L8.74767 2.45852C9.1616 2.04459 9.1616 1.37339 8.74767 0.959458C8.33374 0.545528 7.66253 0.545528 7.2486 0.959458L5 3.20806L2.7514 0.959458C2.33747 0.545528 1.66626 0.545528 1.25233 0.959458C0.838404 1.37339 0.838404 2.04459 1.25233 2.45852L3.50093 4.70712L1.25233 6.95572C0.838404 7.36965 0.838404 8.04086 1.25233 8.45479C1.66626 8.86872 2.33747 8.86872 2.7514 8.45479L5 6.20619L7.2486 8.45479C7.66253 8.86872 8.33374 8.86872 8.74767 8.45479C9.1616 8.04086 9.1616 7.36965 8.74767 6.95572Z" fill="#D0D0D0"/>
</svg>
