<svg width="115" height="39" viewBox="0 0 115 39" fill="none" xmlns="http://www.w3.org/2000/svg">
<path d="M39.2975 14.7244L34.2925 10.6878V4.23219C34.2925 3.50523 33.6948 2.91372 32.9602 2.91372H29.811C29.0764 2.91372 28.4786 3.50523 28.4786 4.23219V5.99859L21.791 0.604941C21.3073 0.214912 20.6697 0 19.9958 0C19.3245 0 18.6899 0.213593 18.2088 0.601585L0.702523 14.7243C-0.0928938 15.3657 -0.0451713 15.9243 0.0540287 16.2003C0.152986 16.4756 0.471662 16.9375 1.49346 16.9375H3.89061V35.5097C3.89061 36.8351 4.97733 37.9133 6.31307 37.9133H13.8833C15.2078 37.9133 16.2452 36.8574 16.2452 35.5097V27.8936C16.2452 27.2408 16.8514 26.6464 17.517 26.6464H22.6042C23.2386 26.6464 23.7548 27.2059 23.7548 27.8936V35.5097C23.7548 36.8126 24.8919 37.9133 26.2378 37.9133H33.6869C35.0227 37.9133 36.1094 36.835 36.1094 35.5097V16.9375H38.5065C39.5283 16.9375 39.8469 16.4756 39.946 16.2003C40.0452 15.9243 40.0929 15.3657 39.2975 14.7244Z" fill="#005BFF"/>
<path d="M52.736 38.352C50.5173 38.352 48.5653 37.872 46.88 36.912C45.216 35.9307 43.9147 34.5653 42.976 32.816C42.0587 31.0667 41.6 29.0293 41.6 26.704C41.6 24.9333 41.856 23.344 42.368 21.936C42.9013 20.5067 43.6587 19.2907 44.64 18.288C45.6213 17.264 46.7947 16.4747 48.16 15.92C49.5467 15.3653 51.072 15.088 52.736 15.088C54.9973 15.088 56.96 15.568 58.624 16.528C60.288 17.488 61.5787 18.8427 62.496 20.592C63.4347 22.32 63.904 24.3467 63.904 26.672C63.904 28.4427 63.6373 30.0427 63.104 31.472C62.5707 32.9013 61.8133 34.128 60.832 35.152C59.8507 36.176 58.6773 36.9653 57.312 37.52C55.9467 38.0747 54.4213 38.352 52.736 38.352ZM52.736 34.128C53.9947 34.128 55.0613 33.84 55.936 33.264C56.832 32.6667 57.5147 31.8133 57.984 30.704C58.4747 29.5733 58.72 28.24 58.72 26.704C58.72 24.3573 58.1973 22.544 57.152 21.264C56.1067 19.9627 54.6347 19.312 52.736 19.312C51.4987 19.312 50.432 19.6 49.536 20.176C48.64 20.752 47.9573 21.5947 47.488 22.704C47.0187 23.8133 46.784 25.1467 46.784 26.704C46.784 29.0293 47.3067 30.8533 48.352 32.176C49.3973 33.4773 50.8587 34.128 52.736 34.128ZM70.0448 38.288C69.3194 38.288 68.7648 38.0853 68.3808 37.68C67.9968 37.2747 67.8048 36.7093 67.8048 35.984V17.456C67.8048 16.7307 68.0074 16.1653 68.4128 15.76C68.8394 15.3547 69.4154 15.152 70.1408 15.152C70.7808 15.152 71.2821 15.28 71.6448 15.536C72.0288 15.7707 72.3808 16.1867 72.7008 16.784L80.0928 30.288H79.0048L86.3968 16.784C86.7168 16.1867 87.0581 15.7707 87.4208 15.536C87.8048 15.28 88.3061 15.152 88.9248 15.152C89.6501 15.152 90.2048 15.3547 90.5888 15.76C90.9941 16.1653 91.1968 16.7307 91.1968 17.456V35.984C91.1968 36.7093 91.0048 37.2747 90.6208 37.68C90.2368 38.0853 89.6821 38.288 88.9568 38.288C88.2314 38.288 87.6661 38.0853 87.2608 37.68C86.8768 37.2747 86.6848 36.7093 86.6848 35.984V23.024H87.3888L81.4368 33.68C81.1808 34.0853 80.9034 34.3947 80.6048 34.608C80.3274 34.8 79.9541 34.896 79.4848 34.896C79.0154 34.896 78.6314 34.7893 78.3328 34.576C78.0341 34.3627 77.7674 34.064 77.5328 33.68L71.5168 22.992H72.2848V35.984C72.2848 36.7093 72.0928 37.2747 71.7088 37.68C71.3461 38.0853 70.7914 38.288 70.0448 38.288ZM98.364 38C97.532 38 96.892 37.776 96.444 37.328C95.996 36.88 95.772 36.24 95.772 35.408V18.032C95.772 17.2 95.996 16.56 96.444 16.112C96.892 15.664 97.532 15.44 98.364 15.44H109.532C110.172 15.44 110.652 15.6107 110.972 15.952C111.313 16.272 111.484 16.7413 111.484 17.36C111.484 18 111.313 18.4907 110.972 18.832C110.652 19.152 110.172 19.312 109.532 19.312H100.508V24.592H108.796C109.457 24.592 109.948 24.7627 110.268 25.104C110.609 25.424 110.78 25.904 110.78 26.544C110.78 27.184 110.609 27.6747 110.268 28.016C109.948 28.336 109.457 28.496 108.796 28.496H100.508V34.128H109.532C110.172 34.128 110.652 34.2987 110.972 34.64C111.313 34.96 111.484 35.4293 111.484 36.048C111.484 36.688 111.313 37.1787 110.972 37.52C110.652 37.84 110.172 38 109.532 38H98.364Z" fill="#005BFF"/>
</svg>
