<svg width="50" height="50" viewBox="0 0 50 50" fill="none" xmlns="http://www.w3.org/2000/svg">
<g clip-path="url(#clip0_1_6)">
<path d="M49.1218 19.6539L42.8656 14.5551V6.40062C42.8656 5.48235 42.1185 4.73517 41.2002 4.73517H37.2637C36.3454 4.73517 35.5982 5.48235 35.5982 6.40062V8.63186L27.2388 1.81882C26.6341 1.32616 25.8371 1.05469 24.9946 1.05469C24.1556 1.05469 23.3624 1.32449 22.761 1.81458L0.878093 19.6538C-0.116178 20.4639 -0.0565252 21.1696 0.0674748 21.5182C0.191172 21.8659 0.589516 22.4494 1.86676 22.4494H4.8632V45.9091C4.8632 47.5833 6.2216 48.9452 7.89128 48.9452H17.354C19.0096 48.9452 20.3064 47.6115 20.3064 45.9091V36.2887C20.3064 35.4641 21.0642 34.7133 21.8962 34.7133H28.2551C29.0482 34.7133 29.6935 35.4201 29.6935 36.2887V45.9091C29.6935 47.5548 31.1149 48.9452 32.7973 48.9452H42.1086C43.7783 48.9452 45.1367 47.5831 45.1367 45.9091V22.4494H48.1331C49.4104 22.4494 49.8086 21.8659 49.9324 21.5182C50.0564 21.1696 50.1161 20.4639 49.1218 19.6539Z" fill="#005BFF"/>
</g>
<defs>
<clipPath id="clip0_1_6">
<rect width="50" height="50" fill="white"/>
</clipPath>
</defs>
</svg>
